<?xml version="1.0"?>
<svg width="16" height="16" xmlns="http://www.w3.org/2000/svg" xmlns:svg="http://www.w3.org/2000/svg" xmlns:xlink="http://www.w3.org/1999/xlink" class="bi bi-arrow-clockwise">
 <g class="layer">
  <title>Layer 1</title>
  <text fill="#007fff" font-family="Serif" font-size="24" id="svg_3" stroke="#000000" stroke-width="0" text-anchor="middle" transform="matrix(0.329178 0 0 0.295912 -5.75896 -0.366835)" x="39.87" xml:space="preserve" y="32.91">10</text>
  <use id="svg_5" transform="matrix(1 0 0 1 0 0) matrix(-0.994756 -0.00231487 0.00231487 -0.994756 8.74751 10.0027)" x="-7.13" xlink:href="#svg_4" y="-4.88"/>
 </g>
 <defs>
  <symbol class="bi bi-arrow-clockwise" height="16" id="svg_4" viewBox="0 0 16 16" width="16" xmlns="http://www.w3.org/2000/svg">
   <path d="m8,3a5,5 0 1 0 4.55,2.91a0.5,0.5 0 0 1 0.9,-0.41a6,6 0 1 1 -5.45,-3.5l0,1z" fill="#0d6efd" fill-rule="evenodd" id="svg_1"/>
   <path d="m8,4.47l0,-3.94a0.25,0.25 0 0 1 0.41,-0.19l2.36,1.97c0.12,0.1 0.12,0.28 0,0.38l-2.36,1.97a0.25,0.25 0 0 1 -0.41,-0.19" fill="#0d6efd" id="svg_2"/>
  </symbol>
 </defs>
</svg>